<?xml version="1.0" standalone="no"?>
<!DOCTYPE svg PUBLIC "-//W3C//DTD SVG 20010904//EN"
 "http://www.w3.org/TR/2001/REC-SVG-20010904/DTD/svg10.dtd">
<svg version="1.0" xmlns="http://www.w3.org/2000/svg"
 width="608.000000pt" height="841.000000pt" viewBox="0 0 608.000000 841.000000"
 preserveAspectRatio="xMidYMid meet">

<g transform="translate(0.000000,841.000000) scale(0.100000,-0.100000)"
fill="#000000" stroke="none">
<path d="M2210 8243 c-8 -3 -25 -15 -37 -26 -26 -23 -31 -79 -12 -120 11 -25
-4 -81 -52 -195 -55 -129 -89 -337 -89 -552 0 -357 90 -663 273 -930 90 -130
249 -283 347 -334 20 -10 63 -37 95 -60 68 -48 84 -79 115 -231 32 -152 40
-248 50 -585 5 -179 14 -386 20 -460 5 -74 15 -214 20 -310 6 -96 15 -202 20
-235 5 -33 17 -107 26 -165 37 -236 81 -348 170 -429 76 -70 151 -95 284 -95
146 -1 258 34 370 116 166 122 246 278 268 523 6 66 17 200 23 297 9 139 16
184 30 207 14 23 51 46 154 95 75 37 139 66 142 66 3 0 43 25 88 55 177 117
313 308 373 520 44 157 46 178 46 365 -1 151 -5 205 -23 295 -59 290 -168 534
-328 733 -49 61 -58 84 -44 111 16 28 13 83 -4 108 -35 49 -140 53 -195 7 -40
-34 -54 -81 -40 -134 14 -54 56 -80 127 -80 52 0 53 -1 102 -60 105 -126 175
-253 229 -420 20 -61 29 -94 52 -210 5 -25 12 -117 16 -205 11 -262 -20 -430
-111 -620 -88 -181 -215 -312 -384 -395 -108 -54 -154 -70 -181 -63 -21 6 -50
50 -50 76 0 13 -20 27 -36 27 -14 0 -22 -60 -25 -171 -4 -173 -8 -179 -59
-100 -90 141 -239 221 -408 221 -79 0 -96 -3 -149 -30 -33 -16 -74 -45 -91
-64 -96 -106 -127 -282 -69 -404 59 -127 237 -210 371 -172 55 15 117 67 140
115 26 54 24 172 -3 229 -44 89 -160 133 -234 87 -66 -41 -73 -118 -14 -151
28 -15 29 -14 68 29 35 39 42 43 63 33 28 -12 56 -69 56 -112 0 -43 -35 -102
-73 -126 -24 -14 -51 -19 -104 -19 -63 0 -76 3 -115 30 -124 86 -132 276 -16
381 64 58 121 79 208 78 154 -2 285 -104 358 -277 24 -57 26 -74 26 -217 1
-137 -2 -163 -22 -225 -37 -108 -91 -202 -157 -271 -76 -79 -142 -119 -231
-140 -59 -14 -79 -14 -139 -4 -132 24 -198 67 -259 172 -64 112 -118 310 -136
504 -5 54 -13 146 -19 204 -42 442 -87 1360 -72 1445 9 51 24 77 69 127 52 58
105 82 177 82 167 0 275 -170 200 -315 -44 -83 -194 -96 -235 -19 -8 15 -3 27
30 65 46 53 52 91 19 121 -20 18 -21 18 -57 -3 -43 -24 -81 -92 -78 -137 10
-119 161 -202 279 -152 39 16 92 74 112 123 22 51 19 168 -5 220 -60 134 -254
200 -385 131 -28 -14 -72 -49 -98 -77 -27 -28 -52 -49 -58 -46 -5 4 -6 30 -3
60 6 46 4 54 -14 64 -31 17 -67 -18 -82 -79 -7 -27 -14 -50 -17 -50 -15 0
-153 107 -211 163 -168 163 -264 293 -361 491 -58 117 -80 184 -119 351 -22
96 -25 132 -25 285 1 182 22 332 70 506 31 112 52 147 91 155 91 18 121 134
48 183 -30 19 -74 28 -96 19z"/>
<path d="M2895 8179 c-39 -19 -47 -45 -28 -86 16 -34 23 -38 59 -41 48 -3 62
9 68 61 4 30 1 40 -21 57 -28 22 -47 24 -78 9z"/>
<path d="M2960 7868 c0 -71 4 -128 9 -128 17 0 81 81 81 103 0 12 -9 33 -20
47 -11 14 -20 30 -20 35 0 6 -11 24 -25 40 l-24 30 -1 -127z"/>
<path d="M2833 7890 c-24 -26 -43 -52 -43 -57 0 -5 20 -25 44 -45 l43 -37 7
52 c8 71 8 137 -1 137 -5 -1 -27 -23 -50 -50z"/>
<path d="M2579 7513 c-16 -38 -34 -76 -39 -85 -6 -10 -10 -24 -10 -32 0 -22
303 -318 311 -303 3 6 9 73 12 147 l5 135 -61 54 c-34 30 -85 76 -114 103 -28
26 -56 48 -63 48 -6 0 -25 -30 -41 -67z"/>
<path d="M3064 7405 l-121 -123 -6 -113 c-4 -62 -5 -114 -3 -116 2 -2 46 25
97 61 52 36 109 76 127 88 18 13 52 38 76 55 l44 32 -38 118 c-21 65 -42 118
-47 119 -4 1 -62 -54 -129 -121z"/>
<path d="M2446 6911 c-9 -14 23 -168 50 -240 30 -81 99 -192 160 -260 47 -53
134 -121 153 -121 8 0 11 48 9 172 l-3 172 -105 83 c-58 46 -132 105 -164 131
-86 68 -94 73 -100 63z"/>
<path d="M3981 6811 c-34 -34 -25 -63 25 -87 33 -16 35 -15 53 7 14 18 17 30
10 52 -10 36 -8 34 -41 42 -19 5 -32 1 -47 -14z m29 -11 c0 -5 -4 -10 -10 -10
-5 0 -10 5 -10 10 0 6 5 10 10 10 6 0 10 -4 10 -10z"/>
<path d="M1935 6810 c-34 -13 -47 -36 -40 -68 5 -23 13 -31 37 -36 44 -9 45
-9 68 24 18 25 19 32 8 52 -22 39 -35 44 -73 28z"/>
<path d="M3200 6778 c-41 -22 -123 -67 -182 -100 l-108 -60 0 -164 c0 -90 3
-164 7 -164 11 0 116 82 153 120 40 40 98 113 119 150 30 51 74 146 86 185 7
22 16 48 20 58 11 27 -12 21 -95 -25z"/>
<path d="M4061 6568 c0 -40 6 -115 12 -166 l12 -94 57 44 c32 23 58 47 58 52
0 14 -124 236 -132 236 -5 0 -8 -33 -7 -72z"/>
<path d="M3971 6579 c-17 -28 -31 -52 -31 -54 0 -2 -18 -31 -40 -64 -22 -33
-40 -62 -40 -65 0 -7 130 -109 134 -105 5 6 18 339 13 339 -2 0 -18 -23 -36
-51z"/>
<path d="M2018 6432 c2 -92 6 -169 8 -171 5 -6 144 120 144 131 0 9 -75 111
-103 140 -7 7 -22 25 -33 40 l-21 27 5 -167z"/>
<path d="M1850 6489 c-36 -44 -66 -86 -68 -93 -3 -11 139 -136 154 -136 10 0
-4 292 -13 301 -5 4 -37 -29 -73 -72z"/>
<path d="M3666 6053 c-18 -37 -56 -173 -56 -204 0 -19 19 -37 98 -91 53 -37
139 -97 191 -133 51 -36 95 -64 97 -62 7 6 -17 250 -25 267 -8 16 -245 224
-273 241 -14 7 -20 4 -32 -18z"/>
<path d="M1556 6013 c-10 -32 -24 -79 -32 -105 -18 -59 -18 -75 0 -85 8 -4 29
-21 48 -38 18 -16 56 -48 83 -70 28 -21 52 -42 55 -45 3 -3 32 -25 64 -50 33
-25 83 -66 112 -93 33 -30 54 -42 56 -35 12 31 7 285 -5 300 -7 8 -41 37 -77
64 -82 62 -79 60 -185 143 -49 39 -93 71 -96 71 -4 0 -14 -26 -23 -57z"/>
<path d="M4300 5981 c-40 -33 -108 -79 -151 -103 l-78 -43 -1 -122 c0 -68 3
-123 6 -123 5 0 24 13 247 169 l109 76 -6 54 c-7 61 -34 151 -46 151 -4 0 -40
-27 -80 -59z"/>
<path d="M2340 6013 c-13 -10 -87 -61 -164 -114 l-141 -96 -6 -69 c-8 -87 -11
-224 -4 -224 5 0 330 227 371 259 13 10 24 29 24 42 0 31 -43 219 -50 219 -3
0 -16 -8 -30 -17z"/>
<path d="M3610 5438 c0 -11 43 -112 61 -144 58 -105 152 -204 259 -273 81 -52
95 -53 86 -3 -3 20 -6 55 -6 77 l0 40 -186 145 c-178 138 -214 165 -214 158z"/>
<path d="M4230 5236 c-162 -93 -147 -71 -142 -202 l2 -55 41 23 c54 30 149
132 191 205 31 54 61 114 55 112 -1 0 -67 -38 -147 -83z"/>
<path d="M2185 5195 c-88 -52 -165 -102 -172 -112 -6 -10 -14 -66 -18 -126 -8
-123 -12 -120 80 -62 96 62 165 143 232 274 53 104 60 122 46 120 -5 0 -80
-43 -168 -94z"/>
<path d="M1600 5245 c0 -2 14 -27 30 -55 17 -28 30 -54 30 -57 0 -20 133 -175
184 -215 l61 -47 9 81 c6 53 6 87 -1 97 -9 14 -296 201 -309 201 -2 0 -4 -2
-4 -5z"/>
<path d="M1605 4661 c-33 -15 -55 -49 -55 -85 0 -26 8 -41 32 -61 31 -26 33
-31 35 -104 6 -173 59 -377 148 -568 93 -199 230 -344 436 -460 80 -46 202
-99 279 -122 212 -62 308 -75 560 -75 199 0 330 11 405 34 16 5 66 18 110 30
44 12 89 25 100 30 11 5 45 19 75 31 190 78 389 232 490 379 94 138 129 243
160 480 12 91 26 184 31 207 5 23 9 52 9 64 0 12 16 39 35 60 43 48 47 89 10
123 -46 43 -121 42 -155 -2 -27 -34 -25 -74 5 -110 15 -17 28 -49 31 -74 13
-96 -43 -387 -103 -533 -33 -81 -86 -156 -169 -240 -207 -210 -429 -295 -859
-328 -381 -29 -714 17 -950 133 -105 52 -130 69 -204 142 -46 45 -106 115
-133 155 -77 115 -162 294 -189 398 -32 123 -40 166 -45 238 -6 79 -5 84 20
114 34 40 35 91 2 122 -26 24 -81 35 -111 22z"/>
<path d="M2467 4112 c-37 -40 -7 -108 42 -95 20 5 41 38 41 64 0 14 -38 49
-53 49 -8 0 -21 -8 -30 -18z"/>
<path d="M3267 4102 c-23 -25 -21 -64 3 -85 26 -22 51 -22 77 2 21 20 21 62 0
89 -14 18 -62 15 -80 -6z"/>
<path d="M3702 4093 c-7 -3 -19 -17 -26 -32 -12 -22 -12 -31 -1 -59 13 -28 18
-32 54 -32 30 0 44 6 55 22 21 30 20 44 -5 79 -19 28 -45 35 -77 22z"/>
<path d="M2208 4016 c-22 -16 -24 -72 -4 -91 15 -16 52 -10 79 13 22 20 22 33
-4 66 -22 29 -45 32 -71 12z"/>
<path d="M2841 3947 c-18 -34 0 -73 38 -82 58 -12 102 45 66 85 -26 29 -88 27
-104 -3z"/>
<path d="M3413 3863 c-5 -10 -8 -25 -7 -33 1 -8 2 -23 3 -32 1 -23 63 -43 89
-29 24 13 33 53 18 83 -15 31 -90 39 -103 11z"/>
<path d="M2788 3714 c-50 -27 -29 -114 28 -114 36 0 64 28 64 65 0 28 -6 36
-32 49 -17 9 -32 16 -32 16 -1 -1 -13 -8 -28 -16z"/>
<path d="M2481 3554 c-27 -34 -27 -58 0 -85 26 -26 66 -22 91 12 16 21 17 30
8 54 -20 53 -66 61 -99 19z"/>
<path d="M2979 3513 c-8 -10 -16 -32 -18 -50 -3 -42 29 -65 79 -54 72 15 63
113 -11 119 -24 2 -40 -3 -50 -15z"/>
<path d="M3961 3054 c-22 -16 -23 -21 -18 -94 3 -43 10 -87 17 -99 6 -13 14
-72 17 -132 6 -104 5 -111 -16 -133 -21 -23 -78 -41 -191 -62 -74 -13 -105
-60 -58 -85 26 -14 141 -13 207 2 34 7 47 7 57 -3 8 -9 15 -62 19 -158 5 -135
21 -380 30 -460 2 -19 4 -38 4 -42 1 -4 11 -18 24 -32 16 -17 27 -22 37 -16 8
5 11 12 8 16 -4 3 0 13 9 22 13 13 14 39 7 196 -12 291 -9 485 8 502 8 9 41
18 74 21 103 11 167 51 145 91 -20 38 -83 48 -148 25 -23 -9 -49 -13 -58 -9
-26 10 -43 65 -50 166 -11 158 -37 262 -71 285 -28 18 -25 18 -53 -1z"/>
<path d="M5415 2951 c-50 -7 -114 -34 -127 -55 -5 -6 -8 -7 -8 -1 0 6 -22 -14
-49 -43 -32 -35 -48 -59 -44 -70 4 -8 2 -13 -3 -9 -5 3 -11 -2 -12 -11 -1 -9
-4 -34 -8 -54 -8 -47 2 -80 17 -58 6 10 7 5 3 -17 -9 -47 51 -161 132 -248 11
-11 32 -38 48 -60 16 -22 35 -47 43 -55 36 -42 61 -77 67 -98 4 -12 11 -20 16
-17 4 3 11 -17 15 -43 4 -26 12 -56 17 -66 7 -13 6 -31 -3 -60 -18 -57 -44
-89 -91 -116 -82 -46 -140 -44 -173 6 -13 20 -13 27 1 60 9 21 27 54 40 73 13
20 24 44 24 55 0 19 -35 56 -53 56 -19 0 -107 -54 -107 -66 0 -7 -5 -14 -11
-16 -17 -6 -28 -76 -20 -133 8 -60 53 -130 78 -121 8 3 11 1 8 -4 -3 -6 6 -15
22 -21 37 -15 191 -15 206 0 6 6 21 11 32 11 30 0 118 85 146 140 18 36 22 61
22 127 0 48 -5 88 -12 97 -6 7 -11 18 -9 22 5 19 -75 161 -106 189 -6 6 -33
37 -61 70 -27 33 -55 65 -62 70 -6 6 -26 38 -44 72 -27 53 -32 73 -31 132 0
80 9 102 56 131 31 18 40 20 76 10 23 -6 57 -27 76 -45 78 -79 163 -10 107 87
-19 31 -90 72 -139 81 -16 2 -51 1 -79 -2z m20 -539 c-3 -3 -11 0 -18 7 -9 10
-8 11 6 5 10 -3 15 -9 12 -12z"/>
<path d="M960 2858 c-14 -6 -39 -17 -57 -24 -17 -8 -36 -14 -42 -14 -6 0 -11
-5 -11 -10 0 -6 -6 -10 -12 -9 -19 3 -49 -12 -43 -21 3 -5 -4 -6 -15 -3 -11 3
-20 0 -20 -6 0 -6 -8 -14 -17 -18 -25 -9 -120 -98 -163 -153 -44 -55 -100
-157 -100 -182 0 -10 -4 -18 -9 -18 -13 0 -39 -119 -47 -216 -11 -134 33 -310
98 -389 42 -51 107 -111 135 -125 15 -8 35 -20 43 -27 9 -6 31 -15 50 -18 19
-3 37 -10 40 -14 4 -7 98 -24 190 -34 95 -11 249 39 271 87 11 23 9 29 -14 52
-24 24 -32 26 -78 21 -28 -4 -64 -13 -80 -21 -53 -26 -289 -23 -289 4 0 5 -8
11 -18 14 -15 5 -69 54 -104 96 -72 86 -108 305 -73 445 23 94 50 149 107 222
45 57 116 123 133 123 19 0 74 34 69 42 -4 6 2 8 15 3 12 -4 21 -2 21 4 0 6 8
11 18 12 25 1 107 64 106 82 -1 9 4 13 12 10 10 -3 14 3 14 20 0 18 -11 34
-33 51 -36 28 -58 31 -97 14z m-463 -980 c-3 -7 -5 -2 -5 12 0 14 2 19 5 13 2
-7 2 -19 0 -25z"/>
<path d="M3484 2835 c-10 -8 -26 -15 -35 -15 -30 0 -109 -70 -131 -116 -16
-36 -19 -55 -14 -97 11 -81 89 -230 156 -299 15 -14 39 -41 53 -58 15 -17 31
-28 37 -25 5 3 10 1 10 -6 0 -7 8 -22 19 -33 10 -12 36 -46 57 -76 36 -51 39
-60 39 -125 0 -62 -3 -75 -30 -112 -59 -83 -159 -111 -222 -64 -48 36 -46 79
7 138 46 52 48 62 19 86 -20 17 -23 17 -62 2 -55 -22 -110 -81 -104 -112 2
-13 0 -26 -4 -29 -15 -9 -10 -51 7 -68 8 -9 12 -21 9 -26 -4 -6 14 -30 38 -55
44 -43 51 -46 147 -59 36 -6 149 20 169 38 10 9 23 16 29 16 6 0 33 21 59 48
40 38 52 59 67 112 16 56 17 71 6 117 -9 36 -18 53 -29 53 -13 0 -13 2 -3 9
12 7 11 14 -2 40 -9 17 -22 31 -28 31 -6 0 -8 3 -5 7 10 9 -14 34 -26 26 -5
-3 -7 -1 -4 4 7 11 -47 97 -81 131 -10 10 -31 36 -47 57 -17 22 -32 42 -35 45
-8 7 -62 98 -81 135 -8 17 -16 58 -18 93 -3 57 -1 64 18 69 12 3 21 9 21 13 0
5 12 12 27 17 43 15 118 -4 155 -37 42 -38 95 -42 103 -7 4 12 2 35 -4 49 -11
29 -70 78 -94 78 -9 0 -19 5 -22 10 -10 16 -148 12 -171 -5z m273 -977 c-3 -8
-6 -5 -6 6 -1 11 2 17 5 13 3 -3 4 -12 1 -19z"/>
<path d="M4610 2817 c-3 -3 -41 -13 -84 -22 -87 -18 -146 -59 -146 -101 0 -43
86 -41 157 4 12 7 62 16 112 19 106 7 125 -1 110 -47 -11 -31 -78 -97 -121
-119 -15 -8 -25 -19 -21 -24 3 -6 1 -7 -5 -3 -26 16 -204 -165 -253 -259 -69
-129 -63 -266 13 -337 44 -41 61 -48 113 -48 62 0 95 16 204 99 52 39 98 71
103 71 5 0 7 3 5 8 -3 4 9 7 26 7 41 0 57 -31 57 -113 0 -35 5 -72 10 -83 16
-28 43 -23 64 13 17 28 19 54 18 283 0 191 -4 274 -17 346 -10 52 -21 99 -25
104 -4 6 -11 29 -15 52 -4 24 -11 46 -16 49 -6 3 -14 16 -19 29 -14 37 -92 68
-185 73 -44 2 -82 2 -85 -1z m202 -292 c8 -8 -13 -150 -23 -153 -5 -2 -9 -8
-9 -14 0 -17 -44 -115 -84 -186 -87 -153 -169 -207 -234 -152 -20 17 -23 27
-21 84 2 58 21 121 40 136 3 3 10 16 14 30 4 14 10 27 14 30 3 3 24 28 45 55
56 70 81 95 140 137 45 33 102 49 118 33z"/>
<path d="M2745 2721 c-11 -5 -39 -14 -62 -21 -23 -7 -44 -19 -47 -26 -3 -8
-14 -14 -25 -14 -23 0 -37 -30 -19 -42 26 -16 79 -20 123 -9 48 12 127 14 163
5 16 -5 22 -14 22 -34 0 -30 -49 -78 -150 -144 -30 -20 -84 -68 -120 -105 -60
-63 -80 -93 -107 -161 -6 -14 -16 -37 -23 -52 -17 -35 -8 -200 13 -249 22 -54
60 -79 120 -79 49 0 127 18 137 31 3 4 30 24 60 45 30 21 63 46 74 56 11 10
28 20 38 24 10 3 18 9 18 14 0 4 9 10 20 13 24 6 62 -2 55 -12 -7 -12 31 -151
45 -164 10 -9 13 -9 17 0 2 7 10 10 17 7 9 -3 15 5 19 23 8 44 -4 465 -14 498
-6 17 -14 59 -19 95 -13 88 -12 88 -42 150 -48 103 -114 150 -222 156 -39 2
-80 0 -91 -5z m223 -270 c19 -11 13 -114 -10 -176 -10 -27 -17 -58 -14 -68 2
-9 0 -15 -5 -11 -5 3 -9 0 -9 -6 0 -21 -48 -116 -74 -147 -14 -17 -26 -34 -26
-37 0 -13 -37 -42 -75 -59 -90 -39 -135 -19 -135 61 0 34 43 169 58 184 7 7
12 15 12 19 0 28 226 249 255 249 6 0 16 -4 23 -9z"/>
<path d="M1350 2696 c-112 -32 -166 -84 -126 -124 10 -10 16 -12 16 -4 0 7 12
12 28 12 15 1 52 9 82 20 72 25 125 25 160 0 21 -15 30 -17 33 -8 2 7 2 0 -1
-17 -2 -16 -10 -33 -18 -38 -53 -31 -164 -123 -160 -133 3 -8 -1 -11 -9 -8 -8
3 -21 -6 -32 -23 -10 -15 -30 -41 -45 -58 -15 -16 -28 -33 -28 -38 0 -4 -11
-25 -25 -47 -14 -22 -22 -40 -18 -40 5 0 1 -5 -8 -10 -9 -5 -20 -27 -24 -47
-4 -21 -11 -41 -16 -44 -5 -3 -12 -42 -16 -87 -6 -78 -5 -83 21 -117 15 -19
36 -35 46 -35 10 0 22 -5 26 -11 12 -21 119 -4 172 27 72 42 123 86 117 101
-3 8 0 11 6 7 6 -3 28 10 48 30 52 51 65 33 75 -100 9 -112 34 -139 81 -88 35
38 47 141 27 244 -5 30 -15 96 -21 145 -7 50 -16 106 -21 125 -5 19 -16 67
-25 105 -18 81 -55 165 -72 165 -7 0 -13 8 -13 19 0 22 -51 63 -99 79 -43 15
-103 14 -161 -2z m230 -56 c0 -5 -2 -10 -4 -10 -3 0 -8 5 -11 10 -3 6 -1 10 4
10 6 0 11 -4 11 -10z m16 -246 c10 -54 -5 -156 -31 -213 -13 -28 -23 -57 -21
-64 1 -6 1 -9 -2 -4 -5 10 -81 -74 -82 -90 0 -7 -4 -13 -10 -13 -5 0 -23 -13
-40 -30 -57 -56 -125 -53 -136 5 -6 35 30 175 45 175 3 0 12 14 20 31 18 41
181 219 201 219 4 0 10 7 14 15 9 24 35 5 42 -31z"/>
<path d="M1916 2618 c-30 -27 -29 -6 -27 -430 2 -298 3 -308 25 -350 24 -46
63 -62 93 -37 15 13 14 87 -3 253 -7 67 11 203 31 243 8 16 15 33 15 40 0 6
14 23 30 37 17 14 29 28 28 32 -4 8 72 34 103 34 35 0 76 -34 94 -77 18 -43
20 -180 3 -255 -17 -77 -16 -231 1 -251 15 -19 46 -24 35 -5 -5 8 -2 9 9 5 27
-10 44 37 58 163 25 233 7 404 -49 464 -15 16 -45 37 -68 47 -36 16 -49 17
-103 8 -45 -8 -59 -14 -50 -21 10 -6 6 -7 -10 -3 -13 4 -26 3 -30 -1 -18 -25
-84 -65 -98 -60 -13 5 -15 17 -9 71 5 51 3 70 -10 90 -20 31 -36 31 -68 3z"/>
<path d="M3513 1610 l-33 -20 0 -230 c0 -215 -1 -230 -18 -230 -10 0 -23 5
-29 11 -21 21 -158 24 -208 5 -50 -20 -129 -100 -153 -156 -8 -19 -18 -43 -23
-52 -4 -9 -14 -55 -21 -102 -10 -69 -9 -101 1 -162 15 -88 36 -132 94 -192 60
-62 97 -77 192 -77 68 0 85 3 109 23 43 34 56 29 56 -21 0 -55 37 -128 73
-145 24 -12 32 -11 51 2 32 20 37 60 25 179 -14 130 -17 614 -6 907 9 222 9
225 -13 253 -25 32 -53 34 -97 7z m-129 -571 c38 -30 65 -89 82 -180 20 -105
4 -166 -60 -232 -69 -72 -147 -80 -197 -21 -81 94 -37 359 70 431 42 29 71 29
105 2z"/>
<path d="M1806 1587 c-49 -52 -119 -257 -178 -522 -11 -49 -24 -108 -29 -130
-5 -22 -12 -56 -16 -75 -7 -39 -21 -54 -39 -39 -14 11 -59 150 -109 334 -43
156 -87 255 -126 284 -34 26 -51 26 -72 3 -44 -48 -40 -82 28 -267 20 -55 48
-143 62 -195 13 -52 34 -129 45 -170 11 -41 26 -106 34 -145 8 -38 19 -79 24
-90 5 -11 19 -53 31 -94 14 -49 33 -86 55 -110 l32 -36 27 20 c43 32 74 127
110 335 29 164 55 237 92 251 31 12 100 6 115 -9 5 -5 16 -58 24 -116 26 -185
92 -307 195 -359 69 -34 120 -35 187 -1 104 51 173 174 176 310 1 98 -13 134
-56 134 -25 0 -32 -7 -50 -47 -12 -27 -29 -82 -40 -123 -44 -178 -141 -221
-216 -97 -45 76 -65 143 -66 223 -1 57 3 76 18 93 23 25 89 47 186 60 102 14
145 28 177 55 37 32 34 99 -9 184 -73 146 -199 188 -325 111 -42 -26 -101
-105 -137 -184 -15 -33 -37 -70 -48 -83 -21 -21 -95 -49 -105 -38 -9 9 17 102
59 209 41 106 67 249 55 299 -16 64 -64 75 -111 25z m472 -328 c29 -29 52
-102 38 -116 -3 -3 -38 -12 -78 -20 -40 -8 -82 -16 -93 -19 -74 -16 -95 -16
-95 0 0 35 49 124 86 154 53 44 100 44 142 1z"/>
<path d="M4567 1571 c-58 -38 -94 -91 -108 -163 -25 -123 5 -200 136 -353 166
-192 201 -255 193 -350 -5 -64 -41 -116 -104 -152 -51 -30 -89 -29 -119 2 -33
32 -31 54 5 100 54 68 31 114 -46 94 -167 -43 -147 -287 29 -345 97 -32 223 0
305 80 52 49 69 80 82 145 21 114 -26 252 -130 376 -172 206 -220 283 -220
354 0 97 54 123 175 81 32 -11 68 -20 80 -20 55 0 75 83 30 124 -35 32 -116
56 -194 56 -57 0 -74 -4 -114 -29z"/>
<path d="M4011 1439 c-41 -13 -120 -91 -146 -144 -10 -22 -24 -62 -30 -90 -11
-49 -12 -50 -56 -56 -108 -13 -156 -81 -77 -108 17 -6 41 -11 54 -11 41 0 54
-11 54 -44 0 -61 40 -191 87 -286 98 -197 224 -265 322 -174 14 13 29 24 32
24 10 0 67 113 80 160 20 71 17 198 -5 243 -24 48 -61 60 -88 27 -16 -20 -18
-38 -16 -134 3 -97 0 -115 -18 -146 -42 -73 -105 -78 -149 -12 -59 89 -105
304 -73 345 8 11 58 28 138 48 130 31 163 43 193 68 52 43 -23 199 -134 279
-24 17 -126 24 -168 11z m135 -111 c34 -24 54 -56 54 -88 0 -14 -13 -22 -55
-34 -30 -9 -80 -23 -111 -32 -38 -11 -59 -13 -66 -6 -18 18 13 102 53 144 42
45 77 49 125 16z"/>
<path d="M2534 1318 c-19 -37 -15 -114 10 -212 16 -59 27 -138 46 -320 21
-196 95 -336 177 -336 59 0 66 69 27 241 -36 159 -32 255 15 325 19 27 43 56
55 64 28 20 97 49 119 49 10 1 40 10 67 22 121 52 55 168 -89 157 -68 -5 -133
-35 -206 -94 l-54 -45 -7 28 c-22 100 -60 153 -110 153 -27 0 -36 -6 -50 -32z"/>
</g>
</svg>
